<?xml version="1.0" encoding="UTF-8" standalone="no"?>
<!-- Generator: Adobe Illustrator 17.0.0, SVG Export Plug-In . SVG Version: 6.00 Build 0)  -->

<svg
   xmlns:dc="http://purl.org/dc/elements/1.1/"
   xmlns:cc="http://creativecommons.org/ns#"
   xmlns:rdf="http://www.w3.org/1999/02/22-rdf-syntax-ns#"
   xmlns:svg="http://www.w3.org/2000/svg"
   xmlns="http://www.w3.org/2000/svg"
   xmlns:sodipodi="http://sodipodi.sourceforge.net/DTD/sodipodi-0.dtd"
   xmlns:inkscape="http://www.inkscape.org/namespaces/inkscape"
   version="1.1"
   x="0px"
   y="0px"
   width="577.2229"
   height="486.32599"
   viewBox="94.105 65 577.22292 486.326"
   enable-background="new 94.105 65 1059.064 486.326"
   xml:space="preserve"
   id="svg106"
   sodipodi:docname="navbar-logo.svg"
   inkscape:version="0.92.3 (2405546, 2018-03-11)"><metadata
   id="metadata112"><rdf:RDF><cc:Work
       rdf:about=""><dc:format>image/svg+xml</dc:format><dc:type
         rdf:resource="http://purl.org/dc/dcmitype/StillImage" /><dc:title></dc:title></cc:Work></rdf:RDF></metadata><defs
   id="defs110" /><sodipodi:namedview
   pagecolor="#ffffff"
   bordercolor="#666666"
   borderopacity="1"
   objecttolerance="10"
   gridtolerance="10"
   guidetolerance="10"
   inkscape:pageopacity="0"
   inkscape:pageshadow="2"
   inkscape:window-width="1920"
   inkscape:window-height="1052"
   id="namedview108"
   showgrid="false"
   fit-margin-top="0"
   fit-margin-left="40"
   fit-margin-right="40"
   fit-margin-bottom="0"
   inkscape:zoom="0.32292667"
   inkscape:cx="569.53248"
   inkscape:cy="243.16303"
   inkscape:window-x="0"
   inkscape:window-y="0"
   inkscape:window-maximized="1"
   inkscape:current-layer="svg106" />
<g
   id="Layer_1"
   transform="translate(40.0005)">
	<g
   id="g78">
		<g
   id="g13">
			<g
   id="g11">
				<linearGradient
   id="SVGID_1_"
   gradientUnits="userSpaceOnUse"
   x1="314.25119"
   y1="335"
   x2="435.75119"
   y2="335">
					<stop
   offset="0"
   style="stop-color:#7C76B7"
   id="stop2" />
					<stop
   offset="0.5"
   style="stop-color:#6561AB"
   id="stop4" />
					<stop
   offset="1"
   style="stop-color:#483F99"
   id="stop6" />
				</linearGradient>
				<path
   d="m 375.001,274.25 c -33.5,0 -60.75,27.25 -60.75,60.75 0,33.5 27.25,60.75 60.75,60.75 33.5,0 60.75,-27.25 60.75,-60.75 0,-33.5 -27.249,-60.75 -60.75,-60.75 z m 0,92.866 c -17.705,0 -32.116,-14.412 -32.116,-32.116 0,-17.704 14.412,-32.116 32.116,-32.116 17.705,0 32.116,14.412 32.116,32.116 0,17.704 -14.411,32.116 -32.116,32.116 z"
   id="path9"
   inkscape:connector-curvature="0"
   style="fill:url(#SVGID_1_)" />
			</g>
		</g>
		<g
   id="g26">
			<g
   id="g24">
				<linearGradient
   id="SVGID_2_"
   gradientUnits="userSpaceOnUse"
   x1="360.68439"
   y1="106.1604"
   x2="389.31799"
   y2="106.1604">
					<stop
   offset="0"
   style="stop-color:#7C76B7"
   id="stop15" />
					<stop
   offset="0.5"
   style="stop-color:#6561AB"
   id="stop17" />
					<stop
   offset="1"
   style="stop-color:#483F99"
   id="stop19" />
				</linearGradient>
				<path
   d="m 375.001,65 c -7.908,0 -14.317,6.409 -14.317,14.317 v 53.687 c 0,7.908 6.409,14.317 14.317,14.317 7.908,0 14.317,-6.409 14.317,-14.317 V 79.317 C 389.318,71.409 382.908,65 375.001,65 Z"
   id="path22"
   inkscape:connector-curvature="0"
   style="fill:url(#SVGID_2_)" />
			</g>
		</g>
		<g
   id="g39">
			<g
   id="g37">
				<linearGradient
   id="SVGID_3_"
   gradientUnits="userSpaceOnUse"
   x1="535.979"
   y1="146.3483"
   x2="591.32739"
   y2="146.3483">
					<stop
   offset="0"
   style="stop-color:#7C76B7"
   id="stop28" />
					<stop
   offset="0.5"
   style="stop-color:#6561AB"
   id="stop30" />
					<stop
   offset="1"
   style="stop-color:#483F99"
   id="stop32" />
				</linearGradient>
				<path
   d="m 587.134,122.867 c -5.591,-5.59 -14.654,-5.59 -20.249,0 l -26.713,26.713 c -5.591,5.591 -5.591,14.655 0,20.249 2.796,2.795 6.458,4.193 10.124,4.193 3.663,0 7.327,-1.398 10.124,-4.193 l 26.715,-26.713 c 5.59,-5.591 5.59,-14.655 -10e-4,-20.249 z"
   id="path35"
   inkscape:connector-curvature="0"
   style="fill:url(#SVGID_3_)" />
			</g>
		</g>
		<g
   id="g52">
			<g
   id="g50">
				<linearGradient
   id="SVGID_4_"
   gradientUnits="userSpaceOnUse"
   x1="158.67509"
   y1="523.65253"
   x2="214.0235"
   y2="523.65253">
					<stop
   offset="0"
   style="stop-color:#7C76B7"
   id="stop41" />
					<stop
   offset="0.5"
   style="stop-color:#6561AB"
   id="stop43" />
					<stop
   offset="1"
   style="stop-color:#483F99"
   id="stop45" />
				</linearGradient>
				<path
   d="m 209.83,500.171 c -5.59,-5.589 -14.654,-5.59 -20.246,0 l -26.715,26.713 c -5.591,5.591 -5.591,14.655 0,20.249 2.796,2.795 6.461,4.193 10.124,4.193 3.663,0 7.327,-1.398 10.124,-4.193 l 26.715,-26.713 c 5.589,-5.592 5.589,-14.656 -0.002,-20.249 z"
   id="path48"
   inkscape:connector-curvature="0"
   style="fill:url(#SVGID_4_)" />
			</g>
		</g>
		<g
   id="g65">
			<g
   id="g63">
				<linearGradient
   id="SVGID_5_"
   gradientUnits="userSpaceOnUse"
   x1="158.67551"
   y1="146.3483"
   x2="214.02299"
   y2="146.3483">
					<stop
   offset="0"
   style="stop-color:#7C76B7"
   id="stop54" />
					<stop
   offset="0.5"
   style="stop-color:#6561AB"
   id="stop56" />
					<stop
   offset="1"
   style="stop-color:#483F99"
   id="stop58" />
				</linearGradient>
				<path
   d="m 209.83,149.581 -26.715,-26.714 c -5.591,-5.59 -14.655,-5.59 -20.246,0 -5.591,5.593 -5.59,14.657 0,20.249 l 26.715,26.713 c 2.795,2.795 6.461,4.193 10.124,4.193 3.663,0 7.329,-1.398 10.124,-4.193 5.589,-5.593 5.588,-14.657 -0.002,-20.248 z"
   id="path61"
   inkscape:connector-curvature="0"
   style="fill:url(#SVGID_5_)" />
			</g>
		</g>
		<g
   id="g76">
			<linearGradient
   id="SVGID_6_"
   gradientUnits="userSpaceOnUse"
   x1="94.104797"
   y1="334.93579"
   x2="560.62439"
   y2="334.93579">
				<stop
   offset="0"
   style="stop-color:#7C76B7"
   id="stop67" />
				<stop
   offset="0.5"
   style="stop-color:#6561AB"
   id="stop69" />
				<stop
   offset="1"
   style="stop-color:#483F99"
   id="stop71" />
			</linearGradient>
			<path
   d="m 375.175,466.914 c -0.057,0 -0.115,0.001 -0.173,0.001 -0.058,0 -0.115,-0.001 -0.173,-0.001 C 302.163,466.821 243.081,407.686 243.081,335 c 0,-72.686 59.081,-131.821 131.747,-131.914 0.057,0 0.115,-0.001 0.173,-0.001 0.045,0 0.089,0.001 0.134,0.001 62.887,0.062 115.599,44.35 128.667,103.375 l 21.134,-28.854 c -7.411,-19.289 -18.433,-36.802 -32.246,-51.688 17.717,7.124 34.789,15.862 50.982,26.108 l 16.952,-23.144 c -55.087,-35.3 -119.69,-54.43 -185.624,-54.43 -106.691,0 -205.556,48.306 -271.246,132.532 -12.866,16.496 -12.866,39.539 0,56.037 63.714,81.694 158.64,129.592 261.645,132.399 l 21.26,-29.026 c -3.786,0.332 -7.615,0.514 -11.484,0.519 z M 126.333,345.409 c -4.779,-6.129 -4.779,-14.687 0,-20.816 35.012,-44.892 80.314,-78.627 131.317,-99.028 -26.783,28.693 -43.202,67.173 -43.202,109.436 0,42.247 16.418,80.742 43.201,109.437 -51.002,-20.402 -96.305,-54.137 -131.316,-99.029 z"
   id="path74"
   inkscape:connector-curvature="0"
   style="fill:url(#SVGID_6_)" />
		</g>
	</g>
</g>

</svg>