<?xml version="1.0" encoding="UTF-8" standalone="no"?>
<!-- Created with Inkscape (http://www.inkscape.org/) -->

<svg
   xmlns:dc="http://purl.org/dc/elements/1.1/"
   xmlns:cc="http://creativecommons.org/ns#"
   xmlns:rdf="http://www.w3.org/1999/02/22-rdf-syntax-ns#"
   xmlns:svg="http://www.w3.org/2000/svg"
   xmlns="http://www.w3.org/2000/svg"
   xmlns:sodipodi="http://sodipodi.sourceforge.net/DTD/sodipodi-0.dtd"
   xmlns:inkscape="http://www.inkscape.org/namespaces/inkscape"
   version="1.1"
   id="svg2"
   xml:space="preserve"
   width="1322.6666"
   height="848.87512"
   viewBox="0 0 1322.6666 848.87508"
   sodipodi:docname="upload-proposals.svg"
   inkscape:version="0.92.3 (2405546, 2018-03-11)"><metadata
     id="metadata8"><rdf:RDF><cc:Work
         rdf:about=""><dc:format>image/svg+xml</dc:format><dc:type
           rdf:resource="http://purl.org/dc/dcmitype/StillImage" /><dc:title></dc:title></cc:Work></rdf:RDF></metadata><defs
     id="defs6" /><sodipodi:namedview
     pagecolor="#ffffff"
     bordercolor="#666666"
     borderopacity="1"
     objecttolerance="10"
     gridtolerance="10"
     guidetolerance="10"
     inkscape:pageopacity="0"
     inkscape:pageshadow="2"
     inkscape:window-width="1920"
     inkscape:window-height="1052"
     id="namedview4"
     showgrid="false"
     fit-margin-top="0"
     fit-margin-left="0"
     fit-margin-right="0"
     fit-margin-bottom="0"
     inkscape:zoom="0.62578945"
     inkscape:cx="535.12693"
     inkscape:cy="555.89227"
     inkscape:window-x="0"
     inkscape:window-y="0"
     inkscape:window-maximized="1"
     inkscape:current-layer="g10" /><g
     id="g10"
     inkscape:groupmode="layer"
     inkscape:label="ink_ext_XXXXXX"
     transform="matrix(1.3333333,0,0,-1.3333333,-83.999998,935.46664)"><g
       id="g12"
       transform="scale(0.1)"><path
         d="m 3294.75,1550.86 c -443.37,-5.31 -848.72,-52.18 -1286.9,-64.75 -221.57,-6.35 -948.77,11.07 -1089.233,-113.1 -221.613,-195.91 364.443,-183.88 304.463,-332.02 -11.89,-29.38 -56.61,-49.568 -83.87,-75.17 -48.92,-45.941 -36.36,-108.531 15.28,-153.429 226.17,-196.621 1053.15,-139.442 1400.6,-142.77 2010.09,-19.269 4025.6,-42.16 6024.54,22.809 431.1,14.011 859.71,31.699 1288.96,48.191 196.41,7.539 442.31,27.211 443.11,71.277 1.9,111.582 -371.8,-5.527 -248.2,217.112 39.8,71.56 245,85.75 140.9,208.32 -114.4,134.76 -378.73,238.84 -622.97,272.91 -249.5,34.8 -506.17,29.34 -759.88,40.38 -465.77,20.29 -933.62,24.16 -1400.85,25.97 -1059.9,4.12 -2119.83,-2.75 -3179.51,-13.44 -315.36,-3.18 -630.91,-8.5 -946.44,-12.29"
         style="fill:#d3e6df;fill-opacity:1;fill-rule:nonzero;stroke:none"
         id="path16"
         inkscape:connector-curvature="0" /><path
         d="m 2396.77,5119.87 -1387.27,63.05 2.06,45.27 1387.26,-63.04 -2.05,-45.28"
         style="fill:#bcd35f;fill-opacity:1;fill-rule:nonzero;stroke:none"
         id="path18"
         inkscape:connector-curvature="0" /><path
         d="m 2379.67,5128.91 -1007.19,1341.53 36.24,27.21 1007.2,-1341.53 -36.25,-27.21"
         style="fill:#bcd35f;fill-opacity:1;fill-rule:nonzero;stroke:none"
         id="path20"
         inkscape:connector-curvature="0" /><path
         d="m 6469.72,4221.4 6.09,104.85 44.92,2.26 11.72,-71.7 21.39,10.9 -16.14,-89.8 -46.78,-8.63 -21.2,52.12"
         style="fill:#ead1c5;fill-opacity:1;fill-rule:nonzero;stroke:none"
         id="path22"
         inkscape:connector-curvature="0" /><path
         d="m 7055.16,3806.33 -332.72,29.2 -163.9,392.86 -90.53,-29.6 85.83,-543.42 519.73,-94.47 -18.41,245.43"
         style="fill:#145566;fill-opacity:1;fill-rule:nonzero;stroke:none"
         id="path24"
         inkscape:connector-curvature="0" /><path
         d="m 2294.82,4425.42 -15.22,104.29 -45.1,-1.66 -5.47,-72.7 -22.33,9.03 23.95,-88.36 47.53,-4.56 16.64,53.96"
         style="fill:#ead1c5;fill-opacity:1;fill-rule:nonzero;stroke:none"
         id="path26"
         inkscape:connector-curvature="0" /><path
         d="m 1643.07,3913.14 479.03,93.52 83.32,418.02 93.09,-21.71 -26.62,-580.61 -478,-159.59 -150.82,250.37"
         style="fill:#145566;fill-opacity:1;fill-rule:nonzero;stroke:none"
         id="path28"
         inkscape:connector-curvature="0" /><path
         d="m 3630.32,1272.8 c -10.25,11.29 -22.22,17.45 -35.74,15.32 -12.99,-2.04 -24.68,-10.83 -30.03,-22.61 -3.65,-8.03 -4.43,-16.98 -5.15,-25.74 -3.74,-45.34 -3.41,-152.96 56.98,-168.45 25.37,-6.52 46.36,11.51 53.14,34.3 10.2,34.33 -4.91,129.43 -39.2,167.18"
         style="fill:#1a3151;fill-opacity:1;fill-rule:nonzero;stroke:none"
         id="path30"
         inkscape:connector-curvature="0" /><path
         d="m 3651.8,1956.65 -3.16,-276.49 c 3.67,-122.82 -15.5,-246.31 -11.83,-369.13 0.85,-28.24 8.21,-58.03 1.09,-86.03 -6.96,-27.37 -29.2,-32.22 -52.04,-18.35 -30.6,18.57 -25.67,61.95 -30.76,93.6 -14,86.98 -30.42,173.54 -45.05,260.4 -7.16,42.59 7.61,102.27 4.4,145.37 -0.01,0.02 -44.67,231.72 -44.67,231.72 l 182.02,18.91"
         style="fill:#ead1c5;fill-opacity:1;fill-rule:nonzero;stroke:none"
         id="path32"
         inkscape:connector-curvature="0" /><path
         d="m 3335.89,2403.4 120.34,-534.55 25.56,-504.81 190.81,4.29 51.89,1412.02 -369.9,-6.72 -18.7,-370.23"
         style="fill:#d1e7f5;fill-opacity:1;fill-rule:nonzero;stroke:none"
         id="path34"
         inkscape:connector-curvature="0" /><path
         d="m 3903.25,1282.85 c -10.7,10.69 -22.9,16.15 -36.28,13.23 -12.86,-2.81 -24.13,-12.31 -28.96,-24.41 -3.3,-8.25 -3.69,-17.26 -4.03,-26.06 -1.8,-45.59 3.14,-153.29 63.98,-165.23 25.57,-5.02 45.73,14.27 51.5,37.47 8.71,34.96 -10.42,129.24 -46.21,165"
         style="fill:#1a3151;fill-opacity:1;fill-rule:nonzero;stroke:none"
         id="path36"
         inkscape:connector-curvature="0" /><path
         d="m 3802.67,1917.83 16.2,-276.03 c 1.32,-76.72 11.54,-152.84 19.48,-229.04 7.38,-70.78 -4.1,-144.49 32.89,-208.86 11.6,-20.19 35.04,-33.63 51.43,-9.11 12.62,18.9 5.12,50.43 7.54,71.87 9.89,87.53 22.21,174.77 32.72,262.22 5.15,42.87 -12.42,101.79 -11.24,145 0,0.03 33.7,233.54 33.7,233.54 l -182.72,10.41"
         style="fill:#ead1c5;fill-opacity:1;fill-rule:nonzero;stroke:none"
         id="path38"
         inkscape:connector-curvature="0" /><path
         d="m 4044.14,2436.08 15.53,-518.89 -81.43,-524.74 -194.1,-5.8 8.57,567.89 -102.71,470.95 -34.48,308.27 307.98,36.33 80.64,-334.01"
         style="fill:#d1e7f5;fill-opacity:1;fill-rule:nonzero;stroke:none"
         id="path40"
         inkscape:connector-curvature="0" /><path
         d="m 3800.51,3832.03 -331.8,7.93 -192.38,-357.78 68.38,-335.12 12.17,-401.03 473.3,-6.46 155.74,25.28 -41.35,428.5 23.7,572.39 -167.76,66.29"
         style="fill:#ebb044;fill-opacity:1;fill-rule:nonzero;stroke:none"
         id="path42"
         inkscape:connector-curvature="0" /><path
         d="m 3357.53,2903.96 -15.24,-55.4 77.71,-63.43 60.37,27.22 15.94,65.07 -47.37,18.38 1.99,14.79 -12.93,16.58 -80.47,-23.21"
         style="fill:#ead1c5;fill-opacity:1;fill-rule:nonzero;stroke:none"
         id="path44"
         inkscape:connector-curvature="0" /><path
         d="m 3469.09,3827.25 -405.29,-444.74 -60.93,-179.96 331.31,-347.39 100.48,67.6 -212.45,290.6 202.73,150.26 44.15,463.63"
         style="fill:#ebb044;fill-opacity:1;fill-rule:nonzero;stroke:none"
         id="path46"
         inkscape:connector-curvature="0" /><path
         d="m 3787.96,3615.24 172.83,-345.5 186.34,-37.03 359.26,303.61 -80.09,90.84 -318.37,-178.38 -168.8,316.96 -151.17,-150.5"
         style="fill:#ead1c5;fill-opacity:1;fill-rule:nonzero;stroke:none"
         id="path48"
         inkscape:connector-curvature="0" /><path
         d="m 3779.73,4110.03 c -50.02,145.43 -242,90.93 -281.58,-38.56 -25.82,-84.47 39.41,-194.08 126.93,-218.34 0.39,-3.32 0.68,-6.42 0.69,-9.06 0.06,-13.55 1.73,-26.92 3.74,-40.48 0.75,-5.05 77.35,9.67 85.89,11.36 2.99,0.59 6.32,1.4 7.93,3.91 3.09,4.8 -1.94,18.96 -2.5,24.3 -0.66,6.31 -1.32,12.62 -1.98,18.94 43.17,21.06 70.41,65.95 78.02,111.64 7.64,45.9 -2.11,92.6 -17.14,136.29"
         style="fill:#ead1c5;fill-opacity:1;fill-rule:nonzero;stroke:none"
         id="path50"
         inkscape:connector-curvature="0" /><path
         d="m 3654.48,4241.45 c -10.29,-10.45 -14.34,-25.03 -17.31,-39.04 -1.77,-8.35 -3.3,-17 -1.51,-25.28 7.14,-33.01 39.87,-31.29 65.2,-41.92 31.22,-13.13 58.15,-37.29 75.64,-65.11 27.38,-43.57 15.06,-99.63 3.96,-147.69 -3.92,-16.93 -11.79,-42.12 1.34,-57.22 13.35,-15.35 44.2,-12.98 60.18,-5.08 14.61,7.21 26.6,20.56 42.64,23.25 16.98,2.84 39.92,-4.62 47.82,10.95 2.19,4.33 2.4,9.63 5.17,13.6 9.38,13.41 32.71,-2.29 45.93,7.16 8.13,5.81 8.07,18.2 5.32,28.02 -2.75,9.8 -7.38,19.74 -5.46,29.71 1.64,8.58 7.83,15.35 11.65,23.16 7.55,15.4 4.94,35.47 -6.3,48.47 -20.9,24.19 -61.35,19.6 -83.75,42.36 -11.67,11.85 -16.19,28.95 -20.54,45.12 -4.35,16.19 -9.57,33.25 -22.04,44.21 -15.41,13.55 -37.65,11.24 -52.85,27.31 -8.94,9.44 -14.89,21.73 -24.91,29.94 -13.22,10.82 -39.05,19.15 -55.48,24.67 -26.06,8.76 -55.22,3.18 -74.7,-16.59"
         style="fill:#1a3151;fill-opacity:1;fill-rule:nonzero;stroke:none"
         id="path52"
         inkscape:connector-curvature="0" /><path
         d="m 3533.04,4009.37 c -0.89,-47.87 22.89,-99.6 0.83,-141.74 -22.25,-42.52 -77.72,-50.19 -124.99,-52.41 -7.78,-0.36 -107.55,-8.97 -107.97,-7.09 -7.47,33.34 -15.2,67.35 -32.62,96.63 -17.43,29.27 -46.56,53.52 -79.93,55.6 9.63,1.67 14.48,13.46 13.37,23.4 -1.11,9.93 -6.26,18.9 -9.23,28.44 -7.31,23.46 -0.2,50.84 17.49,67.32 35.29,32.9 99.28,19.23 129.54,57.01 18.76,23.43 16.52,57.42 26.36,86.02 19.01,55.3 79.56,66.87 124.81,91.85 47.78,26.37 92.76,40.81 147.91,31.63 68.35,-11.39 119.16,-80.98 92.8,-146.47 -33.81,-83.99 -168.99,-76.75 -194.31,-162.03 -2.71,-9.16 -3.88,-18.58 -4.06,-28.16"
         style="fill:#1a3151;fill-opacity:1;fill-rule:nonzero;stroke:none"
         id="path54"
         inkscape:connector-curvature="0" /><path
         d="m 3566.86,3833.94 102.93,-145.48 48.39,3.95 80.65,147.55 -231.97,-6.02"
         style="fill:#d1d6d6;fill-opacity:1;fill-rule:nonzero;stroke:none"
         id="path56"
         inkscape:connector-curvature="0" /><path
         d="M 9337.39,6246.09 7672.23,6468 l 5.99,44.92 1665.15,-221.9 -5.98,-44.93"
         style="fill:#bcd35f;fill-opacity:1;fill-rule:nonzero;stroke:none"
         id="path58"
         inkscape:connector-curvature="0" /><path
         d="m 3849.14,3322.49 -1747.32,1639.01 31.01,33.06 1747.32,-1639.01 -31.01,-33.06"
         style="fill:#bcd35f;fill-opacity:1;fill-rule:nonzero;stroke:none"
         id="path60"
         inkscape:connector-curvature="0" /><path
         d="m 9833.73,4898.49 -2156.4,1462.26 25.43,37.51 2156.4,-1462.26 -25.43,-37.51"
         style="fill:#bcd35f;fill-opacity:1;fill-rule:nonzero;stroke:none"
         id="path62"
         inkscape:connector-curvature="0" /><path
         d="m 1363.32,3027.01 c 16.68,83.03 29.72,159.65 30.92,201.2 3.59,124.98 19.59,537.77 19.59,537.77 l 77.58,157.88 14.32,-0.14 c -1.03,0.12 -2.06,0.24 -3.09,0.36 1.45,13.49 0.83,24.66 -1.24,34.45 -135.26,-8.13 -273.91,-79.07 -312.72,-210.76 -3.19,-10.85 -5.69,-21.94 -6.59,-33.21 -5.42,-67.66 15.26,-117.64 -4.27,-185.6 -16.96,-59.05 -32.33,-118.97 -43.62,-179.39 -16.33,-87.45 -31.42,-174.5 -43.3,-261.32 -13.16,-96.15 -22.43,-192.02 -25.11,-287.33 -0.3,-10.54 -2.43,-40 -3.61,-75.2 -2.5,-73.73 -0.9,-172.35 30.14,-176.03 5.81,-0.7 11.42,1.87 16.54,4.36 39.93,19.4 71.4,44.73 106.61,66.87 l 1.89,384.61 145.96,21.48"
         style="fill:#145566;fill-opacity:1;fill-rule:nonzero;stroke:none"
         id="path64"
         inkscape:connector-curvature="0" /><path
         d="m 2076.83,2631.73 c -7.94,81.84 -16.19,163.67 -26.26,245.29 -20.08,162.78 -47.42,325.19 -93.67,482.77 -17.67,60.21 -38.06,119.58 -58.44,178.91 -24.81,72.27 -49.62,144.52 -74.44,216.79 -30.84,89.81 -82.89,153.08 -174.03,184.5 -16.28,5.61 -33.42,9.93 -51.07,13.11 -0.44,-1.86 -0.83,-3.74 -1.07,-5.73 -1.06,-8.62 -3.52,-18.19 -8.98,-24.44 l 59.82,-0.58 c 0,0 168.78,-589.81 174.98,-691.47 2.36,-38.63 10.2,-122.99 18.92,-211.86 l 91.65,-13.49 3.93,-339.91 c 5.13,-1.48 10.24,-2.91 15.3,-4.24 29.08,-7.73 52.74,-28.92 76.9,-45.54 35.68,-24.55 51.33,-34.27 46.46,15.89"
         style="fill:#145566;fill-opacity:1;fill-rule:nonzero;stroke:none"
         id="path66"
         inkscape:connector-curvature="0" /><path
         d="m 1691.13,2716.7 c -6.64,-0.49 -13.4,-1.01 -20.28,-1.55 l -65.65,-630.92 70.58,-917.59 h 0.67 v 13.85 h 117.74 l 149.34,1021.8 -5.36,463.33 c -71.38,20.53 -148.71,52.2 -223.27,51.55 -7.91,-0.07 -15.84,-0.29 -23.77,-0.47"
         style="fill:#1a3151;fill-opacity:1;fill-rule:nonzero;stroke:none"
         id="path68"
         inkscape:connector-curvature="0" /><path
         d="m 1842.59,3019.02 c 13.81,-140.63 29.82,-292.57 29.82,-292.57 0,0 -74.09,-1.75 -181.28,-9.75 7.93,0.18 15.86,0.4 23.77,0.47 74.56,0.65 151.89,-31.02 223.27,-51.55 l -3.93,339.91 -91.65,13.49"
         style="fill:#145566;fill-opacity:1;fill-rule:nonzero;stroke:none"
         id="path70"
         inkscape:connector-curvature="0" /><path
         d="m 1676.45,1166.64 v -49.08 l 125.86,-62.93 62.93,62.93 -62.93,62.93 h -8.12 l -2.02,-13.85 h -115.72"
         style="fill:#1a3151;fill-opacity:1;fill-rule:nonzero;stroke:none"
         id="path72"
         inkscape:connector-curvature="0" /><path
         d="m 1676.45,1166.64 h 115.72 l 2.02,13.85 h -117.74 v -13.85"
         style="fill:#1a3151;fill-opacity:1;fill-rule:nonzero;stroke:none"
         id="path74"
         inkscape:connector-curvature="0" /><path
         d="m 1506.16,2698.93 c -2.88,-0.36 -5.74,-0.69 -8.64,-1.04 -74.95,-16.04 -123.62,-22.31 -155.22,-23.95 -30.4,-7.98 -60.03,-18.05 -87.77,-31.25 -13.84,-6.6 -26.68,-14 -39.06,-21.77 l -0.39,-80.09 142.9,-1360.34 h 117.17 v -13.85 h 0.68 l 128.83,912.45 0.54,5.14 -2.93,38.02 -96.11,576.68"
         style="fill:#1a3151;fill-opacity:1;fill-rule:nonzero;stroke:none"
         id="path76"
         inkscape:connector-curvature="0" /><path
         d="m 1342.3,2673.94 c -51.11,-2.67 -57.47,6.79 -57.47,6.79 0,0 46.11,185.2 78.49,346.28 l -145.96,-21.48 -1.89,-384.61 c 12.38,7.77 25.22,15.17 39.06,21.77 27.74,13.2 57.37,23.27 87.77,31.25"
         style="fill:#145566;fill-opacity:1;fill-rule:nonzero;stroke:none"
         id="path78"
         inkscape:connector-curvature="0" /><path
         d="m 1506.16,2698.93 96.11,-576.68 2.93,-38.02 65.65,630.92 c -49.96,-3.96 -106.09,-9.23 -164.69,-16.22"
         style="fill:#1a3151;fill-opacity:1;fill-rule:nonzero;stroke:none"
         id="path80"
         inkscape:connector-curvature="0" /><path
         d="m 1357.98,1180.49 h -8.69 l -62.93,-62.93 62.93,-62.93 125.86,62.93 v 49.08 h -115.71 l -1.46,13.85"
         style="fill:#1a3151;fill-opacity:1;fill-rule:nonzero;stroke:none"
         id="path82"
         inkscape:connector-curvature="0" /><path
         d="m 1357.98,1180.49 1.46,-13.85 h 115.71 v 13.85 h -117.17"
         style="fill:#1a3151;fill-opacity:1;fill-rule:nonzero;stroke:none"
         id="path84"
         inkscape:connector-curvature="0" /><path
         d="m 1842.59,3019.02 c -8.72,88.86 -16.56,173.23 -18.92,211.86 -6.2,101.66 -174.98,691.47 -174.98,691.47 l -59.82,0.58 c -0.65,-0.75 -1.33,-1.48 -2.08,-2.14 -1.85,-1.6 -3.98,-2.86 -6.44,-3.67 -4.88,-1.61 -10.19,-1.03 -15.3,-0.42 -19.77,2.34 -39.55,4.69 -59.32,7.02 l -14.32,0.14 -77.58,-157.88 c 0,0 -16,-412.79 -19.59,-537.77 -1.2,-41.55 -14.24,-118.17 -30.92,-201.2 -32.38,-161.08 -78.49,-346.28 -78.49,-346.28 0,0 6.36,-9.46 57.47,-6.8 31.6,1.65 80.27,7.92 155.22,23.96 2.9,0.35 5.76,0.68 8.64,1.04 58.6,6.99 114.73,12.26 164.69,16.22 6.88,0.53 13.64,1.06 20.28,1.55 107.19,8 181.28,9.75 181.28,9.75 0,0 -16.01,151.94 -29.82,292.57"
         style="fill:#bcd35f;fill-opacity:1;fill-rule:nonzero;stroke:none"
         id="path86"
         inkscape:connector-curvature="0" /><path
         d="m 1598.92,3953.1 c 7.73,33.28 44.49,48.27 64.3,77.79 22.45,33.47 34.2,72.45 39.28,112.16 0.09,0.67 0.17,1.34 0.26,2.02 -2.91,-1.58 -5.95,-2.94 -9.12,-4.02 -3.89,15.92 3.57,32.13 7.11,48.14 0.9,4.04 1.06,8.22 0.81,12.45 -28.43,4.91 -57.12,15.47 -78.01,24.59 -43.49,18.98 -128.19,39.21 -173.34,16.79 -35.71,-17.74 -24.75,-74.27 -22.95,-110.03 0.46,-9.19 1.17,-18.56 -0.95,-27.49 -2.18,-9.2 -7.9,-15.41 -11.47,-23.17 3.98,-13.92 10.5,-27.14 21.12,-39.14 28.62,-32.31 57.73,-48.19 65.44,-84.66 33.23,2 66.23,0.18 97.52,-5.43"
         style="fill:#ead1c5;fill-opacity:1;fill-rule:nonzero;stroke:none"
         id="path88"
         inkscape:connector-curvature="0" /><path
         d="m 1502.64,3924.08 c 1.03,-0.12 2.06,-0.24 3.09,-0.36 l 83.14,-0.79 c 5.46,6.25 7.92,15.82 8.98,24.44 0.24,1.99 0.63,3.87 1.07,5.73 -31.29,5.61 -64.29,7.43 -97.52,5.43 2.07,-9.79 2.69,-20.96 1.24,-34.45"
         style="fill:#ead1c5;fill-opacity:1;fill-rule:nonzero;stroke:none"
         id="path90"
         inkscape:connector-curvature="0" /><path
         d="m 1565.05,3916.7 c 5.11,-0.61 10.42,-1.19 15.3,0.42 2.46,0.81 4.59,2.07 6.44,3.68 0.75,0.65 1.43,1.38 2.08,2.13 l -83.14,0.79 c 19.77,-2.33 39.55,-4.68 59.32,-7.02"
         style="fill:#ead1c5;fill-opacity:1;fill-rule:nonzero;stroke:none"
         id="path92"
         inkscape:connector-curvature="0" /><path
         d="m 1703.35,4201.32 c 3.78,-18.05 1.77,-37.58 -0.59,-56.25 19.57,10.7 32.98,32.22 40.99,54.43 -12.74,-1.35 -26.51,-0.47 -40.4,1.82"
         style="fill:#1a3151;fill-opacity:1;fill-rule:nonzero;stroke:none"
         id="path94"
         inkscape:connector-curvature="0" /><path
         d="m 1703.35,4201.32 c -0.6,0.1 -1.19,0.21 -1.79,0.32 0.25,-4.23 0.09,-8.41 -0.81,-12.45 -3.54,-16.01 -11,-32.22 -7.11,-48.14 3.17,1.08 6.21,2.44 9.12,4.02 2.36,18.67 4.37,38.2 0.59,56.25"
         style="fill:#1a3151;fill-opacity:1;fill-rule:nonzero;stroke:none"
         id="path96"
         inkscape:connector-curvature="0" /><path
         d="m 1412.56,4191.58 c 0.59,14.16 1.29,28.75 7.27,41.59 10.51,22.54 34.97,34.98 58.71,42.37 60.6,18.83 129.91,14.2 183.27,-20.16 14.2,-9.14 27.46,-20.62 35.15,-35.66 1.2,-2.34 2.21,-4.74 3.12,-7.16 -3.6,17.49 -11.72,34.9 -8.94,47.47 4,18.12 29.06,22.06 43.03,12.06 10.01,-7.17 15.52,-19.91 16.55,-32.59 1.02,-12.68 -1.94,-25.38 -6.03,-37.36 -0.3,-0.88 -0.63,-1.76 -0.94,-2.64 8.65,0.92 16.85,2.83 24.25,6.08 38.09,16.7 69.06,83.27 67.77,124.25 -0.61,19.18 -7.92,36.32 -25.06,47.9 -14.77,9.98 -31.82,18.27 -40.79,34.14 -6.97,12.31 -8,27.55 -14.9,39.91 -12.5,22.37 -39.65,28.95 -63.25,36.53 -59.07,18.97 -90.86,40.87 -153.42,16.58 -44.48,-17.26 -101.95,-19.58 -143.23,-44.75 -17.24,-10.52 -31.9,-27.42 -43.94,-46.23 -41.7,-65.21 -51.71,-156.89 -24.56,-224.9 6.09,-15.22 13.81,-29.22 22.07,-42.61 16.51,-26.81 34.2,-59.79 63.44,-72.9 0.47,3.26 1.46,6.14 2.71,8.83 -9.81,34.34 -3.75,73.09 -2.28,109.25"
         style="fill:#1a3151;fill-opacity:1;fill-rule:nonzero;stroke:none"
         id="path98"
         inkscape:connector-curvature="0" /><path
         d="m 1427.26,4132.99 c -1.8,35.76 -12.76,92.29 22.95,110.03 45.15,22.42 129.85,2.19 173.34,-16.79 20.89,-9.12 49.58,-19.68 78.01,-24.59 -0.22,3.61 -0.73,7.27 -1.48,10.92 -0.91,2.42 -1.92,4.82 -3.12,7.16 -7.69,15.04 -20.95,26.52 -35.15,35.66 -53.36,34.36 -122.67,38.99 -183.27,20.16 -23.74,-7.39 -48.2,-19.83 -58.71,-42.37 -5.98,-12.84 -6.68,-27.43 -7.27,-41.59 -1.47,-36.16 -7.53,-74.91 2.28,-109.25 3.57,7.76 9.29,13.97 11.47,23.17 2.12,8.93 1.41,18.3 0.95,27.49"
         style="fill:#1a3151;fill-opacity:1;fill-rule:nonzero;stroke:none"
         id="path100"
         inkscape:connector-curvature="0" /><path
         d="m 1750.72,4239.5 c -1.03,12.68 -6.54,25.42 -16.55,32.59 -13.97,10 -39.03,6.06 -43.03,-12.06 -2.78,-12.57 5.34,-29.98 8.94,-47.47 1.38,-3.67 2.47,-7.42 3.27,-11.24 13.89,-2.29 27.66,-3.17 40.4,-1.82 0.31,0.88 0.64,1.76 0.94,2.64 4.09,11.98 7.05,24.68 6.03,37.36"
         style="fill:#1a3151;fill-opacity:1;fill-rule:nonzero;stroke:none"
         id="path102"
         inkscape:connector-curvature="0" /><path
         d="m 1700.08,4212.56 c 0.75,-3.65 1.26,-7.31 1.48,-10.92 0.6,-0.11 1.19,-0.22 1.79,-0.32 -0.8,3.82 -1.89,7.57 -3.27,11.24"
         style="fill:#1a3151;fill-opacity:1;fill-rule:nonzero;stroke:none"
         id="path104"
         inkscape:connector-curvature="0" /><path
         d="m 9203.55,3785.26 160.41,40.16 151.77,-30.37 -137.9,-106.11 -174.28,96.32"
         style="fill:#ead1c5;fill-opacity:1;fill-rule:nonzero;stroke:none"
         id="path106"
         inkscape:connector-curvature="0" /><path
         d="m 9275.05,4065.21 c -26.24,-42.03 -13.35,-95.78 -1.77,-141.84 4.73,-18.82 12.85,-45.5 -5.34,-59.54 -20.36,-15.72 -53.9,-0.71 -64.46,19.18 -7.46,14.04 -8.23,30.13 -8.41,45.65 -0.8,69.51 -1.84,166.87 24.69,231.31 21.27,51.68 116.13,125.45 172.57,70.56 10.25,-9.97 14.43,-23.94 17.54,-37.36 1.86,-8.01 3.48,-16.3 1.84,-24.26 -6.53,-31.75 -38.68,-30.32 -63.37,-40.7 -30.45,-12.8 -56.53,-36.18 -73.29,-63"
         style="fill:#1a3151;fill-opacity:1;fill-rule:nonzero;stroke:none"
         id="path108"
         inkscape:connector-curvature="0" /><path
         d="m 9335.18,3865.58 c -43,19.82 -70.58,62.95 -78.74,106.97 -8.15,44.02 0.75,88.91 14.87,130.98 47.01,139.95 236.15,88.9 276.83,-35.15 35.46,-108.12 -87.91,-260.43 -212.96,-202.8"
         style="fill:#ead1c5;fill-opacity:1;fill-rule:nonzero;stroke:none"
         id="path110"
         inkscape:connector-curvature="0" /><path
         d="m 9519.08,4004.47 c -3.83,-17.53 -0.86,-38.34 -3.99,-56.61 -5.76,-33.63 -26.17,-73.19 -23.66,-106.37 34.15,-5.84 80.41,2.08 111.75,16.9 32.01,15.14 38.3,50.65 54.5,82.7 14.98,29.64 31.41,59.01 39.6,91.2 44.81,176.22 -98.11,325.39 -274.97,295.28 -66.9,-11.39 -115.77,-78.55 -88.97,-141.25 28.83,-67.44 128.66,-73.61 170.81,-130.21 9.35,-12.55 13.71,-31.18 14.93,-51.64"
         style="fill:#1a3151;fill-opacity:1;fill-rule:nonzero;stroke:none"
         id="path112"
         inkscape:connector-curvature="0" /><path
         d="m 9335.39,3877.54 c -1.38,-13.23 -2.75,-26.47 -4.12,-39.71 -0.63,-6.06 -5.79,-22.27 -2.81,-27.61 1.55,-2.77 4.83,-3.57 7.77,-4.13 8.4,-1.58 83.73,-15.4 84.54,-9.65 2.17,15.41 4.01,30.6 4.26,45.94 0.21,12.4 5.24,34.12 2.03,44.68 -15.17,-5.79 -29.64,-7.63 -45.5,-7.55 -15.3,0.07 -30.58,0.44 -45.85,1.11 -0.11,-1.03 -0.22,-2.06 -0.32,-3.08"
         style="fill:#ead1c5;fill-opacity:1;fill-rule:nonzero;stroke:none"
         id="path114"
         inkscape:connector-curvature="0" /><path
         d="m 8778.02,2764.45 -52.36,10.16 -52.43,-74.56 29.91,-52.9 61.35,-10.17 22.6,75.43 -9.07,52.04"
         style="fill:#ead1c5;fill-opacity:1;fill-rule:nonzero;stroke:none"
         id="path116"
         inkscape:connector-curvature="0" /><path
         d="m 9271.4,3701.12 -193.68,-10.82 -122.4,-521.87 -230.07,-380.87 63.86,-73.67 304.28,305.94 178.01,681.29"
         style="fill:#89939b;fill-opacity:1;fill-rule:nonzero;stroke:none"
         id="path118"
         inkscape:connector-curvature="0" /><path
         d="m 9191.85,1221.82 c 8.75,14.77 20.68,24.32 36.39,25.13 15.09,0.79 30.37,-6.15 39.27,-17.83 6.08,-7.96 9.14,-17.61 12.1,-27.05 15.33,-48.89 41.35,-167.09 -22.67,-198.16 -26.9,-13.051 -54.9,1.85 -68.1,25.28 -19.89,35.3 -26.24,143.2 3.01,192.63"
         style="fill:#1a3151;fill-opacity:1;fill-rule:nonzero;stroke:none"
         id="path120"
         inkscape:connector-curvature="0" /><path
         d="m 9307.89,1974.89 -8.43,-310.34 c 2.09,-137.94 -22.09,-276.27 -19.99,-414.21 0.48,-31.71 8.41,-65.27 -0.25,-96.59 -8.47,-30.63 -34.11,-35.69 -60.1,-19.77 -34.83,21.36 -28.41,69.98 -33.72,105.59 -14.57,97.86 -31.94,195.31 -47.22,293.07 -7.5,47.92 10.51,114.67 7.56,163.11 0,0.03 -47.29,260.86 -47.29,260.86 l 209.44,18.28"
         style="fill:#ead1c5;fill-opacity:1;fill-rule:nonzero;stroke:none"
         id="path122"
         inkscape:connector-curvature="0" /><path
         d="m 9411.44,1209.66 c 11.19,13.19 24.61,20.71 40.24,19.01 15.02,-1.63 28.88,-10.91 35.63,-23.84 4.6,-8.81 5.95,-18.82 7.23,-28.61 6.63,-50.65 11.77,-171.38 -56.74,-191.841 -28.79,-8.59 -53.81,10.562 -62.76,35.781 -13.48,37.97 -1.01,145.41 36.4,189.5"
         style="fill:#1a3151;fill-opacity:1;fill-rule:nonzero;stroke:none"
         id="path124"
         inkscape:connector-curvature="0" /><path
         d="m 9351.66,1975.56 17.83,-309.95 c 2.09,-137.93 30.45,-275.47 32.54,-413.41 0.48,-31.71 -6.44,-65.5 3.17,-96.54 9.39,-30.35 35.18,-34.64 60.68,-17.93 34.16,22.4 26.27,70.8 30.49,106.56 11.61,98.25 26.01,196.18 38.32,294.35 6.04,48.14 -13.98,114.32 -12.5,162.82 0,0.03 39.36,262.17 39.36,262.17 l -209.89,11.93"
         style="fill:#ead1c5;fill-opacity:1;fill-rule:nonzero;stroke:none"
         id="path126"
         inkscape:connector-curvature="0" /><path
         d="m 9509.33,3821 -131.5,-69.54 -148.17,53.51 -151.94,-114.67 c 0,0 15.72,-477.92 9.92,-654.84 -5.79,-176.92 -17.42,-320.68 -32.79,-579.53 -16.92,-284.82 55.71,-627.38 55.71,-627.38 l 591.28,8.97 c 0,0 120.37,648.22 58.45,816.26 -61.92,168.04 -25.08,335.3 -27.16,472.8 -2.09,137.51 -59.9,598.44 -59.9,598.44 l -163.9,95.98"
         style="fill:#89939b;fill-opacity:1;fill-rule:nonzero;stroke:none"
         id="path128"
         inkscape:connector-curvature="0" /><path
         d="m 10067.1,4231.09 62.1,-20.8 76.4,86.84 -27.6,71.73 -73,22.16 -40.2,-92.44 2.3,-67.49"
         style="fill:#ead1c5;fill-opacity:1;fill-rule:nonzero;stroke:none"
         id="path130"
         inkscape:connector-curvature="0" /><path
         d="m 9545.63,3541.25 418.03,134.64 210.14,558.44 -124.5,30.95 -247.01,-424.3 -255.1,-54.02 -1.56,-245.71"
         style="fill:#89939b;fill-opacity:1;fill-rule:nonzero;stroke:none"
         id="path132"
         inkscape:connector-curvature="0" /><path
         d="m 3877.55,3320.4 -25.81,37.25 2008.12,1391.75 25.82,-37.25 L 3877.55,3320.4"
         style="fill:#bcd35f;fill-opacity:1;fill-rule:nonzero;stroke:none"
         id="path134"
         inkscape:connector-curvature="0" /><path
         d="m 5860.82,4711.52 -2084.88,1293.12 23.89,38.51 2084.88,-1293.11 -23.89,-38.52"
         style="fill:#bcd35f;fill-opacity:1;fill-rule:nonzero;stroke:none"
         id="path136"
         inkscape:connector-curvature="0" /><path
         d="m 5870.63,4708.22 -3876.7,367.87 4.28,45.12 3876.7,-367.87 -4.28,-45.12"
         style="fill:#bcd35f;fill-opacity:1;fill-rule:nonzero;stroke:none"
         id="path138"
         inkscape:connector-curvature="0" /><path
         d="m 5830.42,4714.26 -31.01,33.04 1875.13,1759.68 31.01,-33.04 -1875.13,-1759.68"
         style="fill:#bcd35f;fill-opacity:1;fill-rule:nonzero;stroke:none"
         id="path140"
         inkscape:connector-curvature="0" /><path
         d="m 8283.31,3096.14 -2480.76,1615.65 24.73,37.98 2480.77,-1615.66 -24.74,-37.97"
         style="fill:#bcd35f;fill-opacity:1;fill-rule:nonzero;stroke:none"
         id="path142"
         inkscape:connector-curvature="0" /><path
         d="m 5873.51,4762.42 -1.48,45.29 4063.16,132.18 1.48,-45.3 -4063.16,-132.17"
         style="fill:#bcd35f;fill-opacity:1;fill-rule:nonzero;stroke:none"
         id="path144"
         inkscape:connector-curvature="0" /><path
         d="m 4482.38,4914.72 c 0,676.98 548.8,1225.78 1225.78,1225.78 676.98,0 1225.78,-548.8 1225.78,-1225.78 0,-676.99 -548.8,-1225.78 -1225.78,-1225.78 -676.98,0 -1225.78,548.79 -1225.78,1225.78"
         style="fill:#8dd35f;fill-opacity:1;fill-rule:nonzero;stroke:none"
         id="path146"
         inkscape:connector-curvature="0" /><path
         d="m 3169.7,6161.38 c 0,317.16 257.13,574.29 574.3,574.29 317.18,0 574.3,-257.13 574.3,-574.29 0,-317.18 -257.12,-574.31 -574.3,-574.31 -317.17,0 -574.3,257.13 -574.3,574.31"
         style="fill:#145566;fill-opacity:1;fill-rule:nonzero;stroke:none"
         id="path148"
         inkscape:connector-curvature="0" /><path
         d="m 1728.36,5142.51 c 0,360.41 292.17,652.58 652.57,652.58 360.41,0 686.29,-292.17 686.29,-652.58 0,-360.4 -325.88,-652.57 -686.29,-652.57 -360.4,0 -652.57,292.17 -652.57,652.57"
         style="fill:#1a3151;fill-opacity:1;fill-rule:nonzero;stroke:none"
         id="path150"
         inkscape:connector-curvature="0" /><path
         d="m 3436.58,3339.02 c 0,284.42 230.56,514.97 514.97,514.97 284.41,0 514.97,-230.55 514.97,-514.97 0,-284.41 -230.56,-514.98 -514.97,-514.98 -284.41,0 -514.97,230.57 -514.97,514.98"
         style="fill:#cd87de;fill-opacity:1;fill-rule:nonzero;stroke:none"
         id="path152"
         inkscape:connector-curvature="0" /><path
         d="m 7105.83,6446.6 c 0,314.46 254.92,569.4 569.39,569.4 314.47,0 569.4,-254.94 569.4,-569.4 0,-314.47 -254.93,-569.39 -569.4,-569.39 -314.47,0 -569.39,254.92 -569.39,569.39"
         style="fill:#cd87de;fill-opacity:1;fill-rule:nonzero;stroke:none"
         id="path154"
         inkscape:connector-curvature="0" /><path
         d="m 7675.22,3180.92 c 0,342.67 277.79,620.46 620.46,620.46 342.67,0 620.46,-277.79 620.46,-620.46 0,-342.67 -277.79,-620.46 -620.46,-620.46 -342.67,0 -620.46,277.79 -620.46,620.46"
         style="fill:#1a3151;fill-opacity:1;fill-rule:nonzero;stroke:none"
         id="path156"
         inkscape:connector-curvature="0" /><path
         d="m 9142.89,4917.25 c 0,388.56 314.99,703.55 703.55,703.55 388.56,0 703.56,-314.99 703.56,-703.55 0,-388.57 -315,-703.57 -703.56,-703.57 -388.56,0 -703.55,315 -703.55,703.57"
         style="fill:#3ababa;fill-opacity:1;fill-rule:nonzero;stroke:none"
         id="path158"
         inkscape:connector-curvature="0" /><path
         d="m 8992.9,6268.55 c 0,191.91 155.57,347.49 347.48,347.49 191.91,0 347.49,-155.58 347.49,-347.49 0,-191.91 -155.58,-347.49 -347.49,-347.49 -191.91,0 -347.48,155.58 -347.48,347.49"
         style="fill:#ffd664;fill-opacity:1;fill-rule:nonzero;stroke:none"
         id="path160"
         inkscape:connector-curvature="0" /><path
         d="m 1076.81,6484.04 c 0,191.92 155.57,347.48 347.48,347.48 191.91,0 347.49,-155.56 347.49,-347.48 0,-191.91 -155.58,-347.48 -347.49,-347.48 -191.91,0 -347.48,155.57 -347.48,347.48"
         style="fill:#ffd664;fill-opacity:1;fill-rule:nonzero;stroke:none"
         id="path162"
         inkscape:connector-curvature="0" /><path
         d="m 630,5205.56 c 0,210.16 170.367,380.52 380.53,380.52 210.16,0 380.53,-170.36 380.53,-380.52 0,-210.16 -170.37,-380.53 -380.53,-380.53 -210.163,0 -380.53,170.37 -380.53,380.53"
         style="fill:#cd87de;fill-opacity:1;fill-rule:nonzero;stroke:none"
         id="path164"
         inkscape:connector-curvature="0" /><path
         d="m 1648.59,3429.56 c 0,234.68 190.25,424.93 424.93,424.93 234.69,0 424.94,-190.25 424.94,-424.93 0,-234.69 -190.25,-424.94 -424.94,-424.94 -234.68,0 -424.93,190.25 -424.93,424.94"
         style="fill:#3ababa;fill-opacity:1;fill-rule:nonzero;stroke:none"
         id="path166"
         inkscape:connector-curvature="0" /><path
         d="m 1554.87,3318.51 67,4.36 38.35,45.12 13.69,-3.27 -3.35,-17.01 42.56,28.33 41.26,-4.32 27.25,-48.02 -8.29,-56.43 -50.54,-22.01 -65.14,7.43 -91.46,-9.96 -11.33,75.78"
         style="fill:#ead1c5;fill-opacity:1;fill-rule:nonzero;stroke:none"
         id="path168"
         inkscape:connector-curvature="0" /><path
         d="m 1590.05,3350.87 -366.3,-9.67 74.48,562.49 -250.09,-246.4 -37.61,-519.07 134.69,-73.36 499.93,159.42 -55.1,126.59"
         style="fill:#145566;fill-opacity:1;fill-rule:nonzero;stroke:none"
         id="path170"
         inkscape:connector-curvature="0" /><path
         d="M 7014.42,2708.65 V 2557.5 l -201.53,-654.97 50.38,-680.18 -125.96,-25.18 -201.53,831.32 7.71,244.58 93.06,498.82 377.87,-63.24"
         style="fill:#1a3151;fill-opacity:1;fill-rule:nonzero;stroke:none"
         id="path172"
         inkscape:connector-curvature="0" /><path
         d="m 6854.55,2529.69 202.5,-1385.53 h 92.05 l 58.13,755.74 125.96,755.74 -478.64,-125.95"
         style="fill:#1a3151;fill-opacity:1;fill-rule:nonzero;stroke:none"
         id="path174"
         inkscape:connector-curvature="0" /><path
         d="m 6753.85,1210.08 -96.15,-101.76 27.78,-51.58 198.39,95.23 -36.54,75.39 -93.48,-17.28"
         style="fill:#3ababa;fill-opacity:1;fill-rule:nonzero;stroke:none"
         id="path176"
         inkscape:connector-curvature="0" /><path
         d="m 7058.76,1163.61 -118.53,-74.51 14.01,-56.88 215.89,42.63 -16.54,82.13 -94.83,6.63"
         style="fill:#3ababa;fill-opacity:1;fill-rule:nonzero;stroke:none"
         id="path178"
         inkscape:connector-curvature="0" /><path
         d="m 7015.63,4216.48 c 56.23,-59.48 157.8,-61.45 205.91,-127.92 31.27,-43.22 30.48,-105.24 7.04,-154.56 -10.93,-22.98 -26.87,-44.34 -48.57,-57.31 -14.07,-8.42 -30.05,-13.01 -46.1,-15.38 -21.46,-3.19 -43.25,-2.2 -64.22,2.41 -3.56,-19.04 -5.4,-38.42 -5.47,-57.79 -37.52,14.73 -87.25,2.43 -124.77,17.18 8.44,21.58 29.09,70.21 37.54,91.79 -7.94,8.11 -15.18,16.9 -21.41,26.48 -37.66,57.88 -39.11,138.47 -3.57,199.49 16.64,28.58 40.18,52.37 63.62,75.61"
         style="fill:#ead1c5;fill-opacity:1;fill-rule:nonzero;stroke:none"
         id="path180"
         inkscape:connector-curvature="0" /><path
         d="m 7014.23,4184.4 206.63,-148.07 -93.85,-175.41 90.78,-6.3 185.63,257.74 -257.88,245.89 -174.92,37.2 -56.33,-71.37 39.25,-161.56 60.69,21.88"
         style="fill:#1a3151;fill-opacity:1;fill-rule:nonzero;stroke:none"
         id="path182"
         inkscape:connector-curvature="0" /><path
         d="m 4473.65,3509.51 27.14,50.66 -61.72,79.06 -64.9,-13.18 -29.96,-59.92 42.12,-28.41 -5.21,-13.98 8.93,-19.03 83.6,4.8"
         style="fill:#ead1c5;fill-opacity:1;fill-rule:nonzero;stroke:none"
         id="path184"
         inkscape:connector-curvature="0" /><path
         d="m 6229,4008.83 -39.32,100.88 42.38,18.68 42.22,-63.12 15.94,18.14 23.13,-90.42 -41.43,-25.37 -42.92,41.21"
         style="fill:#ead1c5;fill-opacity:1;fill-rule:nonzero;stroke:none"
         id="path186"
         inkscape:connector-curvature="0" /><path
         d="m 7125.73,3681.49 -444.79,-41.7 -365.15,386.44 -79.64,-54.54 293.54,-510.94 596.04,-99.13 v 319.87"
         style="fill:#145566;fill-opacity:1;fill-rule:nonzero;stroke:none"
         id="path188"
         inkscape:connector-curvature="0" /><path
         d="m 6783.65,3831.92 300.2,30.16 c 0,0 241.46,-281.32 358.92,-692.45 117.47,-411.13 -143.57,-987.77 -143.57,-987.77 0,0 -810.76,165.5 -943.77,191.61 l 262.4,822.26 165.82,636.19"
         style="fill:#145566;fill-opacity:1;fill-rule:nonzero;stroke:none"
         id="path190"
         inkscape:connector-curvature="0" /></g></g></svg>