<?xml version="1.0" encoding="utf-8"?>
<!-- Generator: Adobe Illustrator 17.0.0, SVG Export Plug-In . SVG Version: 6.00 Build 0)  -->
<!DOCTYPE svg PUBLIC "-//W3C//DTD SVG 1.1//EN" "http://www.w3.org/Graphics/SVG/1.1/DTD/svg11.dtd">
<svg version="1.1" id="Layer_1" xmlns="http://www.w3.org/2000/svg" xmlns:xlink="http://www.w3.org/1999/xlink" x="0px" y="0px"
	 width="1059.064px" height="486.326px" viewBox="0 0 1059.064 486.326" enable-background="new 0 0 1059.064 486.326"
	 xml:space="preserve">
<g id="Layer_1_1_">
	<g>
		<g>
			<g>
				<path fill="#4F4F4F" d="M280.896,209.25c-33.5,0-60.75,27.25-60.75,60.75s27.25,60.75,60.75,60.75s60.75-27.25,60.75-60.75
					S314.397,209.25,280.896,209.25z M280.896,302.116c-17.705,0-32.116-14.412-32.116-32.116s14.412-32.116,32.116-32.116
					c17.705,0,32.116,14.412,32.116,32.116S298.601,302.116,280.896,302.116z"/>
			</g>
		</g>
		<g>
			<g>
				<path fill="#4F4F4F" d="M280.896,0c-7.908,0-14.317,6.409-14.317,14.317v53.687c0,7.908,6.409,14.317,14.317,14.317
					s14.317-6.409,14.317-14.317V14.317C295.213,6.409,288.803,0,280.896,0z"/>
			</g>
		</g>
		<g>
			<g>
				<path fill="#4F4F4F" d="M493.029,57.867c-5.591-5.59-14.654-5.59-20.249,0L446.067,84.58c-5.591,5.591-5.591,14.655,0,20.249
					c2.796,2.795,6.458,4.193,10.124,4.193c3.663,0,7.327-1.398,10.124-4.193l26.715-26.713
					C498.62,72.525,498.62,63.461,493.029,57.867z"/>
			</g>
		</g>
		<g>
			<g>
				<path fill="#4F4F4F" d="M115.725,435.171c-5.59-5.589-14.654-5.59-20.246,0l-26.715,26.713c-5.591,5.591-5.591,14.655,0,20.249
					c2.796,2.795,6.461,4.193,10.124,4.193s7.327-1.398,10.124-4.193l26.715-26.713
					C121.316,449.828,121.316,440.764,115.725,435.171z"/>
			</g>
		</g>
		<g>
			<g>
				<path fill="#4F4F4F" d="M115.725,84.581L89.01,57.867c-5.591-5.59-14.655-5.59-20.246,0c-5.591,5.593-5.59,14.657,0,20.249
					l26.715,26.713c2.795,2.795,6.461,4.193,10.124,4.193s7.329-1.398,10.124-4.193C121.316,99.236,121.315,90.172,115.725,84.581z"
					/>
			</g>
		</g>
		<g>
			<path fill="#4F4F4F" d="M281.07,401.914c-0.057,0-0.115,0.001-0.173,0.001s-0.115-0.001-0.173-0.001
				C208.058,401.821,148.976,342.686,148.976,270s59.081-131.821,131.747-131.914c0.057,0,0.115-0.001,0.173-0.001
				c0.045,0,0.089,0.001,0.134,0.001c62.887,0.062,115.599,44.35,128.667,103.375l21.134-28.854
				c-7.411-19.289-18.433-36.802-32.246-51.688c17.717,7.124,34.789,15.862,50.982,26.108l16.952-23.144
				c-55.087-35.3-119.69-54.43-185.624-54.43c-106.691,0-205.556,48.306-271.246,132.532c-12.866,16.496-12.866,39.539,0,56.037
				c63.714,81.694,158.64,129.592,261.645,132.399l21.26-29.026C288.768,401.727,284.939,401.909,281.07,401.914z M32.228,280.409
				c-4.779-6.129-4.779-14.687,0-20.816c35.012-44.892,80.314-78.627,131.317-99.028c-26.783,28.693-43.202,67.173-43.202,109.436
				c0,42.247,16.418,80.742,43.201,109.437C112.542,359.036,67.239,325.301,32.228,280.409z"/>
		</g>
	</g>
</g>
<g id="Layer_2">
	<g>
		<path fill="#4F4F4F" d="M412.062,308.214h10.391c4.7,0,9.309,0.928,13.823,2.783c4.453,1.917,8.35,4.576,11.689,7.979
			c3.278,3.34,5.813,7.02,7.607,11.04c1.731,4.144,2.598,8.597,2.598,13.359c0,2.288-0.464,5.071-1.392,8.35
			c-0.989,3.34-2.351,6.524-4.082,9.556l-3.062,5.474l5.752,2.598c1.917,0.928,3.835,1.979,5.752,3.154
			c1.546,1.051,2.907,2.134,4.082,3.247c3.835,4.02,6.772,8.504,8.813,13.452c2.041,4.824,3.062,10.051,3.062,15.679
			c0,5.69-1.021,10.947-3.062,15.771c-2.041,5.01-4.979,9.463-8.813,13.359s-8.288,6.927-13.359,9.092
			c-5.01,2.041-10.205,3.062-15.586,3.062h-19.668h-5.938h-4.731h-19.39V308.214H412.062z M404.826,365.084l6.03-0.278
			c2.227-0.124,5.257-0.31,9.092-0.557c0.866-0.063,1.639-0.093,2.319-0.093l0.371-0.093c2.907-0.371,5.164-0.928,6.772-1.67
			c1.979-0.928,3.989-2.412,6.03-4.453c1.731-1.855,3.062-3.896,3.989-6.123s1.392-4.639,1.392-7.236
			c0-2.536-0.464-4.917-1.392-7.144c-0.928-2.165-2.258-4.206-3.989-6.123c-1.67-1.608-3.649-2.938-5.938-3.989
			c-2.227-0.928-4.577-1.392-7.051-1.392H412.06h-1.392h-5.845v5.752v27.368v6.031H404.826z M404.826,428.541h5.845h5.938h19.668
			c2.907,0,5.845-0.588,8.813-1.763c2.969-1.237,5.474-2.938,7.515-5.103c2.041-1.979,3.742-4.546,5.103-7.7
			c1.175-3.03,1.763-6.062,1.763-9.092s-0.588-6.03-1.763-8.999c-1.237-2.969-2.938-5.566-5.103-7.793
			c-2.288-2.227-4.731-3.928-7.329-5.103c-2.845-1.361-5.721-2.134-8.628-2.319c-3.154-0.186-6.169-0.263-9.046-0.232
			c-2.875,0.031-5.767,0.077-8.674,0.14c-1.423,0-2.83,0.016-4.221,0.046c-1.393,0.031-2.737,0.047-4.036,0.047h-5.845v5.752v36.274
			L404.826,428.541L404.826,428.541z"/>
		<path fill="#4F4F4F" d="M599.372,308.214v54.551v30.244c0,7.607-1.299,14.597-3.896,20.967
			c-2.722,6.433-6.741,12.308-12.061,17.627v0.093c-5.628,5.505-11.535,9.494-17.72,11.968c-6.37,2.659-13.328,3.989-20.874,3.989
			c-7.669,0-14.689-1.299-21.06-3.896c-6.618-2.722-12.524-6.772-17.72-12.153c-5.381-5.319-9.401-11.194-12.061-17.627
			c-2.598-6.37-3.896-13.359-3.896-20.967v-30.244v-54.551h18.647v54.551v26.997v3.154c0,4.824,0.896,9.401,2.69,13.73
			c1.67,4.082,4.299,7.947,7.886,11.597c3.464,3.525,7.36,6.154,11.689,7.886c4.206,1.794,8.782,2.69,13.73,2.69
			c4.7,0,9.246-0.896,13.638-2.69c4.329-1.794,8.195-4.422,11.597-7.886c3.401-3.216,6.092-7.082,8.071-11.597
			c1.794-4.329,2.69-8.906,2.69-13.73v-3.154v-26.997v-54.551L599.372,308.214L599.372,308.214z"/>
		<path fill="#4F4F4F" d="M655.778,308.307c8.659,0.494,16.606,2.227,23.843,5.195c8.535,3.401,16.143,8.411,22.822,15.029
			l0.093,0.093c6.123,6.123,10.7,13.498,13.73,22.126s4.546,17.488,4.546,26.58c0,9.153-1.516,18.014-4.546,26.58
			c-3.03,8.565-7.607,15.91-13.73,22.033l-0.093,0.093c-6.556,6.556-14.163,11.535-22.822,14.937
			c-8.535,3.464-17.781,5.195-27.739,5.195h-33.955V308.307h33.955H655.778z M652.067,427.799c7.36,0,14.102-1.145,20.225-3.433
			c6.062-2.227,11.473-5.69,16.235-10.391c4.639-4.763,8.103-10.236,10.391-16.421c2.288-6.062,3.433-12.865,3.433-20.41
			c0-7.422-1.145-14.194-3.433-20.317s-5.783-11.566-10.483-16.328c-4.639-4.577-10.081-8.103-16.328-10.576
			c-6.123-2.289-12.896-3.433-20.317-3.433h-9.741h-5.845v5.752v89.805v5.752h5.845h9.927L652.067,427.799L652.067,427.799z"/>
		<path fill="#4F4F4F" d="M794.074,307.286h4.175c4.887,0,9.556,0.464,14.009,1.392c4.701,0.989,9.062,2.35,13.081,4.082
			c4.145,1.793,8.164,3.989,12.061,6.587c1.732,1.175,3.773,2.69,6.123,4.546l-13.174,13.267c-3.772-3.031-7.886-5.505-12.339-7.422
			c-5.999-2.536-12.524-3.804-19.575-3.804c-7.236,0-13.792,1.268-19.668,3.804c-5.999,2.474-11.534,6.246-16.606,11.318
			c-5.01,5.133-8.751,10.669-11.226,16.606c-2.535,6.246-3.804,12.803-3.804,19.668c0,6.927,1.269,13.482,3.804,19.668
			c2.475,5.999,6.216,11.535,11.226,16.606s10.546,8.845,16.606,11.318c6.186,2.536,12.741,3.804,19.668,3.804
			c5.443,0,10.731-0.835,15.864-2.505c4.824-1.484,9.494-3.865,14.009-7.144c3.649-2.722,6.804-5.721,9.463-8.999
			c2.783-3.34,5.103-6.958,6.958-10.854l3.896-8.257h-9.185h-36.831v-17.163h1.577h63.828c0.248,9.771-1.082,18.833-3.989,27.183
			c-3.34,9.834-8.782,18.462-16.328,25.884c-6.988,6.865-14.565,11.999-22.729,15.4c-8.102,3.401-17.039,5.103-26.812,5.103
			c-9.834,0-18.771-1.701-26.812-5.103c-8.287-3.401-15.833-8.535-22.637-15.4c-7.051-6.989-12.184-14.534-15.4-22.637
			c-3.401-8.164-5.103-17.133-5.103-26.904c0-9.711,1.701-18.679,5.103-26.904c3.217-8.041,8.35-15.617,15.4-22.729
			c6.742-6.865,14.287-12.03,22.637-15.493c6.804-2.907,14.35-4.608,22.637-5.103L794.074,307.286z"/>
		<path fill="#4F4F4F" d="M959.518,307.936v18.369h-54.272h-5.752v5.752v30.151v5.845h5.752h39.243v18.369h-39.243h-5.752v5.752
			v30.151v5.845h5.752h54.272v18.369h-54.272h-24.214V307.936H959.518z"/>
		<path fill="#4F4F4F" d="M1028.078,308.214h30.986v18.276h-30.986h-5.845v5.752v113.926h-18.462V332.242v-5.752h-5.845H966.94
			v-18.276h30.986H1028.078z"/>
	</g>
	<g>
		<path fill="#4F4F4F" d="M578.395,53.309h46.654v232.119h-46.654V53.309z"/>
		<path fill="#4F4F4F" d="M653.851,53.309h75.742c25.844,0,46.741,9.758,60.765,23.615c14.13,14.131,22.462,27.022,22.462,52.702
			v6.048c0,15.647-4.895,30.383-14.687,44.206c-8.152,11.414-14.609,16.269-27.791,21.455l53.999,84.093h-57.022l-66.67-102.668
			v102.668h-46.654L653.851,53.309z M764.727,131.066c0-8.448-3.072-15.888-9.216-22.319c-6.053-5.885-17.547-9.216-28.798-9.216
			h-26.208v64.077h17.999v0.144h15.551C751.057,163.752,764.727,148.762,764.727,131.066z"/>
		<path fill="#4F4F4F" d="M844.364,53.309h46.654v232.119h-46.654V53.309z"/>
		<path fill="#4F4F4F" d="M984.507,239.733c12.884,0,27.105-10.702,27.105-23.586c0-21.191-28.443-24.148-44.495-29.71
			c-28.302-9.645-53.295-32.878-53.295-64.488c0-39.145,31.752-70.685,70.895-70.685c35.694,0,65.263,26.472,70.051,60.899
			l-46.325,9.786c0-12.743-10.702-23.445-23.445-23.445c-12.954,0-23.655,10.702-23.655,23.585c0,20.91,26.471,26.472,42.593,31.259
			c29.288,8.448,55.126,30.766,55.126,63.08c0,39.145-35.131,70.755-74.205,70.755c-35.905,0-68.361-26.331-73.642-60.899
			l46.325-9.857c0,12.954,14.081,23.515,27.176,23.515L984.507,239.733z"/>
	</g>
</g>
</svg>
